<svg xmlns="http://www.w3.org/2000/svg" width="48" height="59.998" viewBox="0 0 48 59.998">
  <g id="money" transform="translate(-8 -2.002)">
    <g id="Gruppe_14" data-name="Gruppe 14">
      <path id="Pfad_32" data-name="Pfad 32" d="M9,62H55a1,1,0,0,0,1-1V23a1,1,0,0,0-1-1H50V19a5.006,5.006,0,0,0-5-5H44a1,1,0,0,0-1,1v7H9a1,1,0,0,0-1,1V61A1,1,0,0,0,9,62ZM27,38.891a6.98,6.98,0,0,1,0-9.782ZM50,41V24h4V44H48.974A4.948,4.948,0,0,0,50,41ZM45,16a3,3,0,0,1,3,3V37a4.98,4.98,0,0,0-3-1ZM37,29.106a6.981,6.981,0,0,1,0,9.8Zm0,12.362a8.957,8.957,0,0,0,0-14.929V24h6V37a1,1,0,0,0,1,1h1a3,3,0,0,1,0,6H37ZM37,46H54v2H37Zm0,4H54v2H37Zm0,4H54v2H37Zm0,4H54v2H37Zm-8,0V24h6V60H29ZM10,24h3.9A5.016,5.016,0,0,1,10,27.9Zm0,5.92A7,7,0,0,0,15.92,24H27v2.54a8.956,8.956,0,0,0,0,14.92V44H16a7,7,0,0,0-6-6.92Zm0,9.18A5.009,5.009,0,0,1,14,44H10ZM10,46H27v2H10Zm0,4H27v2H10Zm0,4H27v2H10Zm0,4H27v2H10Z" fill="#1999c0"/>
      <path id="Pfad_33" data-name="Pfad 33" d="M29.986,2.835a1,1,0,0,0-1.972,0,3.868,3.868,0,0,1-3.179,3.179,1,1,0,0,0,0,1.972,3.868,3.868,0,0,1,3.179,3.179,1,1,0,0,0,1.972,0,3.868,3.868,0,0,1,3.179-3.179,1,1,0,0,0,0-1.972,3.868,3.868,0,0,1-3.179-3.179ZM29,8.428A5.87,5.87,0,0,0,27.572,7,5.87,5.87,0,0,0,29,5.572,5.87,5.87,0,0,0,30.428,7,5.87,5.87,0,0,0,29,8.428Z" fill="#1999c0"/>
      <path id="Pfad_34" data-name="Pfad 34" d="M15,19V16h3V14H15V11H13v3H10v2h3v3Z" fill="#1999c0"/>
      <path id="Pfad_35" data-name="Pfad 35" d="M53,15V12h3V10H53V7H51v3H48v2h3v3Z" fill="#1999c0"/>
      <rect id="Rechteck_15" data-name="Rechteck 15" width="4" height="2" transform="translate(16 33)" fill="#1999c0"/>
    </g>
  </g>
</svg>
